# Exported from Nomad Sculpt
o bow
usemtl mat0_bow
v 0.011724661 -0.00230473 -1.43815446
v 0.010153861 0.003280012 -1.43637192
v 0.005862356 0.007368328 -1.43506706
v 0.000000053 0.008864754 -1.43458951
v -0.00586225 0.007368328 -1.43506706
v -0.01015375 0.003280013 -1.43637192
v -0.01172455 -0.00230473 -1.43815446
v -0.01015375 -0.00788947 -1.439937
v -0.00586225 -0.01197779 -1.44124186
v 0.000000054 -0.01347422 -1.44171941
v 0.005862356 -0.01197779 -1.44124186
v 0.010153863 -0.00788947 -1.439937
v 0.008335251 0.223325654 -2.14508152
v 0.007218545 0.227295935 -2.14381433
v 0.004167651 0.230202376 -2.14288664
v 0.000000053 0.231266215 -2.14254713
v -0.00416755 0.230202376 -2.14288664
v -0.00721844 0.227295935 -2.14381433
v -0.00833514 0.223325654 -2.14508152
v -0.00721844 0.219355374 -2.14634871
v -0.00416754 0.216448932 -2.1472764
v 0.000000054 0.215385094 -2.14761591
v 0.004167651 0.216448932 -2.1472764
v 0.007218547 0.219355374 -2.14634871
v 0.008207279 -0.00230473 -1.43815446
v 0.007107719 0.001604589 -1.4369067
v 0.004103666 0.004466411 -1.43599331
v 0.000000053 0.005513909 -1.43565893
v -0.00410356 0.004466411 -1.43599331
v -0.00710761 0.001604589 -1.4369067
v -0.00820717 -0.00230473 -1.43815446
v -0.00710761 -0.00621405 -1.43940222
v -0.00410356 -0.00907587 -1.4403156
v 0.000000054 -0.01012337 -1.44064999
v 0.004103666 -0.00907587 -1.4403156
v 0.007107719 -0.00621405 -1.43940222
v 0.000000053 -0.00230473 -1.43815446
v 0.004103666 -0.00230473 -1.43815446
v 0.002051860 0.001080840 -1.43707383
v -0.00205175 0.001080841 -1.43707383
v -0.00410356 -0.00230473 -1.43815446
v -0.00205175 -0.0056903 -1.43923509
v 0.002051862 -0.0056903 -1.43923509
v 0.005834692 0.223325654 -2.14508152
v 0.005052999 0.226104855 -2.14419436
v 0.002917372 0.228139355 -2.14354515
v 0.000000053 0.228884041 -2.14330745
v -0.00291727 0.228139355 -2.14354515
v -0.00505289 0.226104855 -2.14419436
v -0.00583458 0.223325654 -2.14508152
v -0.00505289 0.220546454 -2.14596868
v -0.00291727 0.218511953 -2.14661789
v 0.000000053 0.217767268 -2.14685559
v 0.002917372 0.218511953 -2.14661789
v 0.005052999 0.220546469 -2.14596868
v 0.000000053 0.223325654 -2.14508152
v 0.002917373 0.223325654 -2.14508152
v 0.001458713 0.225732505 -2.14431334
v -0.00145861 0.225732505 -2.14431334
v -0.00291727 0.223325654 -2.14508152
v -0.00145861 0.220918804 -2.1458497
v 0.001458714 0.220918804 -2.1458497
vn 1 -0.00003712 0.000116294
vn 0.866018354 0.476301133 0.152149468
vn 0.500012159 0.824978053 0.263436943
vn 0 0.952616155 0.304175257
vn -0.49998927 0.824990689 0.263440966
vn -0.86602396 0.476291924 0.152146533
vn -1 -0.00003712 0.000116297
vn -0.86602396 -0.47636613 -0.15191394
vn -0.50000244 -0.82505757 -0.26320601
vn 0 -0.9526903 -0.30394262
vn 0.500025391 -0.82504511 -0.26320201
vn 0.866031527 -0.4763535 -0.15190992
vn 0.999975800 0.002115722 -0.00662881
vn 0.866003036 0.478433251 0.145397707
vn 0.499990344 0.827116251 0.256687104
vn 0 0.954745888 0.297422766
vn -0.49996749 0.827128887 0.256691008
vn -0.86599535 0.478445857 0.145401552
vn -0.9999758 0.002115787 -0.00662902
vn -0.86600852 -0.47419244 -0.15865274
vn -0.49998072 -0.8228901 -0.26994678
vn 0 -0.95051432 -0.31068057
vn 0.500003516 -0.82287741 -0.26994264
vn 0.866016209 -0.47417995 -0.15864855
vn 0 -0.30405897 0.952653288
vn 0 -0.30405897 0.952653288
vn 0 -0.30405897 0.952653288
vn 0 -0.30405897 0.952653288
vn 0 -0.30405897 0.952653288
vn 0 -0.30405897 0.952653288
vn 0 -0.30405897 0.952653288
vn 0 -0.30405897 0.952653288
vn 0 -0.30405897 0.952653288
vn 0 -0.30405897 0.952653288
vn 0 -0.30405897 0.952653288
vn 0 -0.30405897 0.952653288
vn 0 -0.30405897 0.952653288
vn 0 -0.30405897 0.952653288
vn 0 -0.30405897 0.952653288
vn 0 -0.30405897 0.952653288
vn 0 -0.30405897 0.952653288
vn 0 -0.30405897 0.952653288
vn 0 -0.30405897 0.952653288
vn 0 0.304058939 -0.95265317
vn 0 0.304058939 -0.95265317
vn 0 0.304058939 -0.95265317
vn 0 0.304058939 -0.95265317
vn 0 0.304058939 -0.95265317
vn 0 0.304058939 -0.95265317
vn 0 0.304058939 -0.95265317
vn 0 0.304058939 -0.95265317
vn 0 0.304058939 -0.95265317
vn 0 0.304058939 -0.95265317
vn 0 0.304058939 -0.95265317
vn 0 0.304058939 -0.95265317
vn 0 0.304058939 -0.95265317
vn 0 0.304058939 -0.95265317
vn 0 0.304058939 -0.95265317
vn 0 0.304058939 -0.95265317
vn 0 0.304058939 -0.95265317
vn 0 0.304058939 -0.95265317
vn 0 0.304058939 -0.95265317
s 0
f 1//1 13//13 14//14 2//2
f 2//2 14//14 15//15 3//3
f 3//3 15//15 16//16 4//4
f 4//4 16//16 17//17 5//5
f 5//5 17//17 18//18 6//6
f 6//6 18//18 19//19 7//7
f 7//7 19//19 20//20 8//8
f 8//8 20//20 21//21 9//9
f 9//9 21//21 22//22 10//10
f 10//10 22//22 23//23 11//11
f 11//11 23//23 24//24 12//12
f 12//12 24//24 13//13 1//1
f 26//26 25//25 1//1 2//2
f 27//27 26//26 2//2 3//3
f 28//28 27//27 3//3 4//4
f 29//29 28//28 4//4 5//5
f 30//30 29//29 5//5 6//6
f 31//31 30//30 6//6 7//7
f 32//32 31//31 7//7 8//8
f 33//33 32//32 8//8 9//9
f 34//34 33//33 9//9 10//10
f 35//35 34//34 10//10 11//11
f 36//36 35//35 11//11 12//12
f 25//25 36//36 12//12 1//1
f 39//39 40//40 37//37 38//38
f 41//41 42//42 37//37 40//40
f 43//43 38//38 37//37 42//42
f 26//26 39//39 38//38 25//25
f 27//27 28//28 39//39 26//26
f 40//40 39//39 28//28 29//29
f 30//30 41//41 40//40 29//29
f 31//31 32//32 41//41 30//30
f 42//42 41//41 32//32 33//33
f 34//34 43//43 42//42 33//33
f 35//35 36//36 43//43 34//34
f 38//38 43//43 36//36 25//25
f 13//13 44//44 45//45 14//14
f 14//14 45//45 46//46 15//15
f 15//15 46//46 47//47 16//16
f 16//16 47//47 48//48 17//17
f 17//17 48//48 49//49 18//18
f 18//18 49//49 50//50 19//19
f 19//19 50//50 51//51 20//20
f 20//20 51//51 52//52 21//21
f 21//21 52//52 53//53 22//22
f 22//22 53//53 54//54 23//23
f 23//23 54//54 55//55 24//24
f 24//24 55//55 44//44 13//13
f 56//56 59//59 58//58 57//57
f 56//56 61//61 60//60 59//59
f 56//56 57//57 62//62 61//61
f 57//57 58//58 45//45 44//44
f 58//58 47//47 46//46 45//45
f 47//47 58//58 59//59 48//48
f 59//59 60//60 49//49 48//48
f 60//60 51//51 50//50 49//49
f 51//51 60//60 61//61 52//52
f 61//61 62//62 53//53 52//52
f 62//62 55//55 54//54 53//53
f 55//55 62//62 57//57 44//44
