# Exported from Nomad Sculpt
o boom
usemtl mat0_boom
v -0.50740278 0.346849381 0.631752431
v -0.50574923 0.341012954 0.632917583
v -0.50538397 0.352685809 0.631879925
v 0.006494948 0.201920390 -0.81768173
v 0.004830649 0.196083948 -0.81768441
v 0.003177085 0.201920390 -0.81884956
v 0.005195883 0.207756832 -0.81872207
v -0.50408494 0.346849381 0.632920265
v 0.001281501 0.212029397 -0.82052678
v 0.002267745 0.206005901 -0.81957781
v -0.00251845 0.205458551 -0.8212077
v -0.00047231 0.208996698 -0.82084107
v -0.00430891 0.210091412 -0.82230079
v -0.008214 0.208996698 -0.82356596
v -0.00419934 0.213593274 -0.82261211
v -0.00977802 0.212029397 -0.8244195
v -0.51477921 0.358522266 0.627989888
v -0.52035791 0.356958389 0.626182496
v -0.51488876 0.355020403 0.628301203
v -0.50929838 0.356958389 0.630075216
v -0.51105219 0.353925705 0.629760921
v -0.50831211 0.350934892 0.631024181
v -0.5130983 0.350387543 0.629394292
v -0.51696914 0.350387543 0.628031790
v -0.51127362 0.346849381 0.630389988
v -0.51331973 0.343311220 0.630023300
v -0.51514447 0.346849381 0.629027545
v -0.51719058 0.343311220 0.628660857
v -0.51923674 0.339773058 0.628294169
v -0.51901531 0.346849381 0.627665102
v -0.52197677 0.342763871 0.627030909
v -0.52172107 0.350934892 0.626304507
v -0.5228861 0.346849381 0.626302659
v -0.51879388 0.353925705 0.627036035
v -0.52453965 0.352685809 0.625137567
v -0.52620399 0.346849381 0.625134825
v -0.0139598 0.207756832 -0.82546449
v -0.0156241 0.201920390 -0.82546717
v -0.01114121 0.206005901 -0.82429749
v -0.00843542 0.201920390 -0.82293689
v -0.01230623 0.201920390 -0.82429934
v -0.01139689 0.197834879 -0.82357109
v -0.00865684 0.194844082 -0.82230783
v -0.01432503 0.196083948 -0.82442677
v -0.01041065 0.191811382 -0.82262212
v -0.52490491 0.341012954 0.626175224
v -0.52099055 0.336740374 0.627979874
v -0.51550967 0.335176497 0.630065202
v -0.50993103 0.336740374 0.631872594
v -0.51540011 0.33867836 0.629753887
v -0.00492981 0.190247505 -0.82053679
v 0.000648872 0.191811382 -0.8187294
v -0.00482023 0.193749368 -0.82084811
v -0.00273985 0.198382228 -0.82057869
v -0.00091515 0.194844082 -0.81958294
v 0.002012065 0.197834879 -0.81885141
v -0.00069373 0.201920390 -0.82021201
v -0.0066107 0.198382228 -0.82194114
v -0.00456457 0.201920390 -0.82157445
v -0.00638929 0.205458551 -0.8225702
v -0.51149505 0.339773058 0.631019115
v -0.50856781 0.342763871 0.631750583
vn -0.33054775 0.093815296 0.939114987
vn 0.800702214 -0.49758348 0.333596557
vn 0.831826925 0.497972399 0.245127454
vn 0.943901717 -0.00015259 0.33022663
vn 0.801977455 -0.49794877 0.329968661
vn 0.330548614 -0.09378789 -0.93911743
vn 0.833105385 0.497607201 0.241500720
vn 0.942635119 0.000183110 0.333825022
vn 0.499236971 0.862030446 0.087555877
vn 0.330548614 -0.09378789 -0.93911743
vn 0.330548614 -0.09378789 -0.93911743
vn 0.330548614 -0.09378789 -0.93911743
vn 0.330548614 -0.09378789 -0.93911743
vn 0.330548614 -0.09378789 -0.93911743
vn 0.031786162 0.995406568 -0.09030727
vn -0.44399244 0.862043559 -0.24444139
vn 0.030499283 0.995771765 -0.08665113
vn -0.44527888 0.862409055 -0.24078509
vn -0.33054775 0.093815296 0.939114987
vn 0.497949659 0.862395882 0.091211810
vn -0.33054775 0.093815296 0.939114987
vn -0.33054775 0.093815296 0.939114987
vn -0.33054775 0.093815296 0.939114987
vn -0.33054775 0.093815296 0.939114987
vn -0.33054775 0.093815296 0.939114987
vn -0.33054775 0.093815296 0.939114987
vn -0.33054775 0.093815296 0.939114987
vn -0.33054775 0.093815296 0.939114987
vn -0.33054775 0.093815296 0.939114987
vn -0.33054775 0.093815296 0.939114987
vn -0.33054775 0.093815296 0.939114987
vn -0.33054775 0.093815296 0.939114987
vn -0.33054775 0.093815296 0.939114987
vn -0.33054775 0.093815296 0.939114987
vn -0.80196887 0.497985541 -0.32993388
vn -0.94391173 0.000183116 -0.33019775
vn -0.80069375 0.497620344 -0.3335619
vn -0.94264525 -0.0001526 -0.33379629
vn 0.330548614 -0.09378789 -0.93911743
vn 0.330548614 -0.09378789 -0.93911743
vn 0.330548614 -0.09378789 -0.93911743
vn 0.330548614 -0.09378789 -0.93911743
vn 0.330548614 -0.09378789 -0.93911743
vn -0.83184177 -0.49796191 -0.2450984
vn -0.49795049 -0.8623991 -0.09117646
vn -0.83312017 -0.49759662 -0.2414715
vn -0.49923781 -0.86203355 -0.08752038
vn -0.03179717 -0.99540341 0.090338535
vn 0.444014877 -0.86202043 0.244482398
vn -0.33054775 0.093815296 0.939114987
vn -0.03051026 -0.99576873 0.086682312
vn 0.445301383 -0.86238599 0.240826100
vn 0.330548614 -0.09378789 -0.93911743
vn 0.330548614 -0.09378789 -0.93911743
vn 0.330548614 -0.09378789 -0.93911743
vn 0.330548614 -0.09378789 -0.93911743
vn 0.330548614 -0.09378789 -0.93911743
vn 0.330548614 -0.09378789 -0.93911743
vn 0.330548614 -0.09378789 -0.93911743
vn 0.330548614 -0.09378789 -0.93911743
vn -0.33054775 0.093815296 0.939114987
vn -0.33054775 0.093815296 0.939114987
s 0
f 25//25 26//26 62//62 1//1
f 22//22 23//23 25//25 1//1
f 1//1 62//62 2//2 8//8
f 22//22 1//1 8//8 3//3
f 62//62 61//61 49//49 2//2
f 2//2 5//5 4//4 8//8
f 49//49 52//52 5//5 2//2
f 21//21 22//22 3//3 20//20
f 3//3 7//7 9//9 20//20
f 8//8 4//4 7//7 3//3
f 5//5 56//56 6//6 4//4
f 4//4 6//6 10//10 7//7
f 52//52 55//55 56//56 5//5
f 56//56 54//54 57//57 6//6
f 57//57 11//11 10//10 6//6
f 7//7 10//10 12//12 9//9
f 9//9 12//12 13//13 15//15
f 20//20 9//9 15//15 17//17
f 11//11 13//13 12//12 10//10
f 13//13 11//11 60//60 14//14
f 59//59 60//60 11//11 57//57
f 15//15 13//13 14//14 16//16
f 60//60 40//40 39//39 14//14
f 16//16 14//14 39//39 37//37
f 17//17 15//15 16//16 18//18
f 18//18 16//16 37//37 35//35
f 34//34 19//19 17//17 18//18
f 19//19 21//21 20//20 17//17
f 32//32 34//34 18//18 35//35
f 24//24 23//23 19//19 34//34
f 21//21 19//19 23//23 22//22
f 23//23 24//24 27//27 25//25
f 32//32 30//30 24//24 34//34
f 30//30 28//28 27//27 24//24
f 26//26 25//25 27//27 28//28
f 61//61 62//62 26//26 50//50
f 50//50 26//26 28//28 29//29
f 28//28 30//30 31//31 29//29
f 50//50 29//29 47//47 48//48
f 29//29 31//31 46//46 47//47
f 33//33 31//31 30//30 32//32
f 31//31 33//33 36//36 46//46
f 33//33 32//32 35//35 36//36
f 35//35 37//37 38//38 36//36
f 36//36 38//38 44//44 46//46
f 37//37 39//39 41//41 38//38
f 38//38 41//41 42//42 44//44
f 40//40 42//42 41//41 39//39
f 42//42 40//40 58//58 43//43
f 59//59 58//58 40//40 60//60
f 44//44 42//42 43//43 45//45
f 58//58 54//54 53//53 43//43
f 45//45 43//43 53//53 51//51
f 46//46 44//44 45//45 47//47
f 47//47 45//45 51//51 48//48
f 61//61 50//50 48//48 49//49
f 48//48 51//51 52//52 49//49
f 51//51 53//53 55//55 52//52
f 54//54 56//56 55//55 53//53
f 59//59 57//57 54//54 58//58
