# Exported from Nomad Sculpt
o gaff
usemtl mat0_gaff
v -0.00899699 1.099470615 -0.83376372
v -0.01190421 1.094568491 -0.83138192
v -0.00976012 1.104372739 -0.83744371
v -0.1618645 1.393591642 -0.41212854
v -0.16145569 1.388689518 -0.40857381
v -0.15854846 1.393591642 -0.41095561
v -0.15931155 1.398493766 -0.41463563
v -0.01231305 1.099470615 -0.83493662
v -0.15448087 1.402082324 -0.41542336
v -0.15676139 1.397023081 -0.41271058
v -0.15209544 1.396563410 -0.41074041
v -0.1533799 1.399535179 -0.41326201
v -0.1493101 1.400454640 -0.41246206
v -0.14564244 1.399535179 -0.41052514
v -0.14866686 1.403395891 -0.41428062
v -0.14342736 1.402082324 -0.41151363
v 0.000884620 1.109274864 -0.8370887
v 0.006124124 1.107961416 -0.83432174
v 0.000241372 1.106333613 -0.83527017
v -0.00492942 1.107961416 -0.83823138
v -0.00382845 1.105414152 -0.83607006
v -0.00720991 1.102902174 -0.83551872
v -0.00254399 1.102442383 -0.83354849
v 0.001324755 1.102442383 -0.83218008
v -0.00512824 1.099470615 -0.83239532
v -0.00384381 1.096498847 -0.82987368
v -0.00125953 1.099470615 -0.83102691
v 0.000024941 1.096498847 -0.82850528
v 0.001309378 1.093527078 -0.8259837
v 0.002609221 1.099470615 -0.82965851
v 0.004690863 1.096039176 -0.82653511
v 0.006191762 1.102902174 -0.83077836
v 0.006477939 1.099470615 -0.8282901
v 0.003909016 1.105414152 -0.83333325
v 0.009385163 1.104372739 -0.83067185
v 0.009794001 1.099470615 -0.82711715
v -0.14016628 1.398493766 -0.40786377
v -0.13975747 1.393591642 -0.40430903
v -0.14335969 1.397023081 -0.40797031
v -0.14694226 1.393591642 -0.40685037
v -0.1430735 1.393591642 -0.40548196
v -0.14486058 1.390160083 -0.40372699
v -0.14824206 1.387648105 -0.40317559
v -0.14231041 1.388689518 -0.40180197
v -0.14714108 1.385100841 -0.40101424
v 0.007241047 1.094568491 -0.82461005
v 0.002410350 1.090979933 -0.82382232
v -0.00340367 1.089666366 -0.82496506
v -0.00864315 1.090979933 -0.82773209
v -0.00276044 1.092607617 -0.8267836
v -0.1529551 1.383787393 -0.40215698
v -0.15819462 1.385100841 -0.40492398
v -0.15231186 1.386728644 -0.40397555
v -0.15339524 1.390619874 -0.40706563
v -0.15597951 1.387648105 -0.40591246
v -0.15826225 1.390160083 -0.40846732
v -0.15467972 1.393591642 -0.4095872
v -0.14952652 1.390619874 -0.4056972
v -0.150811 1.393591642 -0.40821877
v -0.14822672 1.396563410 -0.40937197
v -0.00642807 1.093527078 -0.82872057
v -0.00871083 1.096039176 -0.8312754
vn 0.278840750 -0.54840869 -0.78835005
vn -0.9063307 -0.42114443 -0.03467025
vn -0.72345448 0.415070593 -0.55166113
vn -0.9442997 0.003051915 -0.32907251
vn -0.90943938 -0.41503096 -0.02587046
vn -0.27881032 0.548416078 0.788355708
vn -0.72656369 0.421168714 -0.54288316
vn -0.9412061 -0.00302145 -0.33781949
vn -0.31456611 0.727246105 -0.6100502
vn -0.27881032 0.548416078 0.788355708
vn -0.27881032 0.548416078 0.788355708
vn -0.27881032 0.548416078 0.788355708
vn -0.27881032 0.548416078 0.788355708
vn -0.27881032 0.548416078 0.788355708
vn 0.181299418 0.839265167 -0.51260561
vn 0.628190875 0.727235317 -0.27659541
vn 0.184418574 0.833161115 -0.52137548
vn 0.631285727 0.721136510 -0.28537765
vn 0.278840750 -0.54840869 -0.78835005
vn -0.3114346 0.721137464 -0.61884516
vn 0.278840750 -0.54840869 -0.78835005
vn 0.278845429 -0.54838735 -0.78836328
vn 0.278845429 -0.54838735 -0.78836328
vn 0.278840750 -0.54840869 -0.78835005
vn 0.278840750 -0.54840869 -0.78835005
vn 0.278840750 -0.54840869 -0.78835005
vn 0.278840750 -0.54840869 -0.78835005
vn 0.278840750 -0.54840869 -0.78835005
vn 0.278840750 -0.54840869 -0.78835005
vn 0.278840750 -0.54840869 -0.78835005
vn 0.278840750 -0.54840869 -0.78835005
vn 0.278840750 -0.54840869 -0.78835005
vn 0.278840750 -0.54840869 -0.78835005
vn 0.278840750 -0.54840869 -0.78835005
vn 0.909430205 0.415048748 0.025908593
vn 0.944289803 -0.0030213 0.329101443
vn 0.906321167 0.421161860 0.034708086
vn 0.941195726 0.003051871 0.337847977
vn -0.27881032 0.548416078 0.788355708
vn -0.27881032 0.548416078 0.788355708
vn -0.27881032 0.548416078 0.788355708
vn -0.27881032 0.548416078 0.788355708
vn -0.27881032 0.548416078 0.788355708
vn 0.723466754 -0.41501987 0.551683306
vn 0.311450809 -0.72110128 0.618879199
vn 0.726566493 -0.42112899 0.542910218
vn 0.314558446 -0.72722131 0.610083818
vn -0.1812824 -0.83924222 0.512649118
vn -0.62818682 -0.72722167 0.276640772
vn 0.278840750 -0.54840869 -0.78835005
vn -0.1844015 -0.83313775 0.521418929
vn -0.63128144 -0.72112238 0.285423040
vn -0.27881032 0.548416078 0.788355708
vn -0.27881497 0.54839468 0.788368880
vn -0.27881032 0.548416078 0.788355708
vn -0.27881032 0.548416078 0.788355708
vn -0.27881032 0.548416078 0.788355708
vn -0.27881032 0.548416078 0.788355708
vn -0.27881032 0.548416078 0.788355708
vn -0.27881032 0.548416078 0.788355708
vn 0.278840750 -0.54840869 -0.78835005
vn 0.278840750 -0.54840869 -0.78835005
s 0
f 25//25 26//26 62//62 1//1
f 22//22 23//23 25//25 1//1
f 1//1 62//62 2//2 8//8
f 22//22 1//1 8//8 3//3
f 62//62 61//61 49//49 2//2
f 2//2 5//5 4//4 8//8
f 49//49 52//52 5//5 2//2
f 21//21 22//22 3//3 20//20
f 3//3 7//7 9//9 20//20
f 8//8 4//4 7//7 3//3
f 5//5 56//56 6//6 4//4
f 4//4 6//6 10//10 7//7
f 52//52 55//55 56//56 5//5
f 56//56 54//54 57//57 6//6
f 57//57 11//11 10//10 6//6
f 7//7 10//10 12//12 9//9
f 9//9 12//12 13//13 15//15
f 20//20 9//9 15//15 17//17
f 11//11 13//13 12//12 10//10
f 13//13 11//11 60//60 14//14
f 59//59 60//60 11//11 57//57
f 15//15 13//13 14//14 16//16
f 60//60 40//40 39//39 14//14
f 16//16 14//14 39//39 37//37
f 17//17 15//15 16//16 18//18
f 18//18 16//16 37//37 35//35
f 34//34 19//19 17//17 18//18
f 19//19 21//21 20//20 17//17
f 32//32 34//34 18//18 35//35
f 24//24 23//23 19//19 34//34
f 21//21 19//19 23//23 22//22
f 23//23 24//24 27//27 25//25
f 32//32 30//30 24//24 34//34
f 30//30 28//28 27//27 24//24
f 26//26 25//25 27//27 28//28
f 61//61 62//62 26//26 50//50
f 50//50 26//26 28//28 29//29
f 28//28 30//30 31//31 29//29
f 50//50 29//29 47//47 48//48
f 29//29 31//31 46//46 47//47
f 33//33 31//31 30//30 32//32
f 31//31 33//33 36//36 46//46
f 33//33 32//32 35//35 36//36
f 35//35 37//37 38//38 36//36
f 36//36 38//38 44//44 46//46
f 37//37 39//39 41//41 38//38
f 38//38 41//41 42//42 44//44
f 40//40 42//42 41//41 39//39
f 42//42 40//40 58//58 43//43
f 59//59 58//58 40//40 60//60
f 44//44 42//42 43//43 45//45
f 58//58 54//54 53//53 43//43
f 45//45 43//43 53//53 51//51
f 46//46 44//44 45//45 47//47
f 47//47 45//45 51//51 48//48
f 61//61 50//50 48//48 49//49
f 48//48 51//51 52//52 49//49
f 51//51 53//53 55//55 52//52
f 54//54 56//56 55//55 53//53
f 59//59 57//57 54//54 58//58
