# Exported from Nomad Sculpt
o boom
usemtl mat0_boom
v -0.52225673 0.244678854 0.157710894 1 1 1
v -0.52357513 0.250346958 0.156956985 1 1 1
v -0.52717716 0.254496306 0.154897198 1 1 1
v -0.53209758 0.256015062 0.152083471 1 1 1
v -0.53701794 0.254496306 0.149269744 1 1 1
v -0.54061997 0.250346958 0.147209957 1 1 1
v -0.54193836 0.244678854 0.146456047 1 1 1
v -0.54061997 0.239010751 0.147209957 1 1 1
v -0.53701794 0.234861403 0.149269744 1 1 1
v -0.53209758 0.233342647 0.152083471 1 1 1
v -0.52717716 0.234861403 0.154897198 1 1 1
v -0.52357513 0.239010751 0.156956985 1 1 1
v 0.013962164 0.244678914 -0.7799871 1 1 1
v 0.012643739 0.250347018 -0.78074098 1 1 1
v 0.009041741 0.254496365 -0.78280079 1 1 1
v 0.004121348 0.256015121 -0.78561449 1 1 1
v -0.00079907 0.254496365 -0.78842825 1 1 1
v -0.00440107 0.250347018 -0.790488 1 1 1
v -0.00571947 0.244678914 -0.79124194 1 1 1
v -0.00440107 0.239010810 -0.790488 1 1 1
v -0.00079907 0.234861463 -0.78842825 1 1 1
v 0.004121348 0.233342707 -0.78561449 1 1 1
v 0.009041741 0.234861463 -0.78280079 1 1 1
v 0.012643739 0.239010810 -0.78074098 1 1 1
v -0.52520895 0.244678854 0.156022682 1 1 1
v -0.52613187 0.248646527 0.155494913 1 1 1
v -0.52865326 0.251551061 0.154053077 1 1 1
v -0.53209758 0.252614200 0.152083471 1 1 1
v -0.53554183 0.251551061 0.150113865 1 1 1
v -0.53806323 0.248646527 0.148672029 1 1 1
v -0.53898615 0.244678854 0.14814426 1 1 1
v -0.53806323 0.240711182 0.148672029 1 1 1
v -0.53554183 0.237806633 0.150113865 1 1 1
v -0.53209758 0.236743509 0.152083471 1 1 1
v -0.52865326 0.237806633 0.154053077 1 1 1
v -0.52613187 0.240711182 0.155494913 1 1 1
v -0.53209758 0.244678854 0.152083471 1 1 1
v -0.52865326 0.244678854 0.154053077 1 1 1
v -0.53037542 0.248114958 0.153068259 1 1 1
v -0.53381968 0.248114958 0.151098683 1 1 1
v -0.53554183 0.244678854 0.150113865 1 1 1
v -0.53381968 0.241242751 0.151098683 1 1 1
v -0.53037542 0.241242751 0.153068259 1 1 1
v 0.011009916 0.244678914 -0.78167528 1 1 1
v 0.010087028 0.248646587 -0.78220308 1 1 1
v 0.007565632 0.251551121 -0.78364491 1 1 1
v 0.004121348 0.252614259 -0.78561449 1 1 1
v 0.000677064 0.251551121 -0.78758413 1 1 1
v -0.00184433 0.248646587 -0.78902596 1 1 1
v -0.00276725 0.244678914 -0.7895537 1 1 1
v -0.00184433 0.240711242 -0.78902596 1 1 1
v 0.000677064 0.237806692 -0.78758413 1 1 1
v 0.004121348 0.236743569 -0.78561449 1 1 1
v 0.007565632 0.237806692 -0.78364491 1 1 1
v 0.010087028 0.240711242 -0.78220308 1 1 1
v 0.004121348 0.244678914 -0.78561449 1 1 1
v 0.007565632 0.244678914 -0.78364491 1 1 1
v 0.005843475 0.248115018 -0.7846297 1 1 1
v 0.002399191 0.248115018 -0.78659928 1 1 1
v 0.000677064 0.244678914 -0.78758413 1 1 1
v 0.002399191 0.241242811 -0.78659928 1 1 1
v 0.005843475 0.241242811 -0.7846297 1 1 1
vn 0.866765916 -0.00000003 0.498715072
vn 0.750470101 0.499987512 0.432211875
vn 0.432714641 0.866028547 0.250504732
vn -0.00131802 0.999996483 0.002304918
vn -0.43533084 0.866041660 -0.24588345
vn -0.75309962 0.500000774 -0.42759818
vn -0.86940205 0.000000029 -0.49410534
vn -0.75311112 -0.49997786 -0.42760479
vn -0.43534237 -0.86603415 -0.24589005
vn -0.00131806 -0.99999648 0.002304869
vn 0.432726025 -0.86602086 0.250511229
vn 0.750481545 -0.49996468 0.432218402
vn 0.869417130 -0.00000003 0.494078874
vn 0.753121256 0.499987453 0.427575588
vn 0.435365855 0.866028428 0.245868444
vn 0.001333173 0.999996364 -0.00233129
vn -0.43267956 0.866041660 -0.25051978
vn -0.75044823 0.500000715 -0.4322345
vn -0.86675072 0.000000029 -0.49874166
vn -0.75045967 -0.4999778 -0.4322412
vn -0.43269095 -0.86603403 -0.25052649
vn 0.001333214 -0.99999648 -0.00233148
vn 0.435377329 -0.8660208 0.245874837
vn 0.753132760 -0.49996462 0.427582025
vn -0.49641207 -0.00000005 0.868087053
vn -0.49641207 -0.00000005 0.868087053
vn -0.49641207 -0.00000005 0.868087053
vn -0.49641207 -0.00000005 0.868087053
vn -0.49641207 -0.00000005 0.868087053
vn -0.49641207 -0.00000005 0.868087053
vn -0.49641207 -0.00000005 0.868087053
vn -0.49641207 -0.00000005 0.868087053
vn -0.49641207 -0.00000005 0.868087053
vn -0.49641207 -0.00000005 0.868087053
vn -0.49641207 -0.00000005 0.868087053
vn -0.49641207 -0.00000005 0.868087053
vn -0.49641207 -0.00000005 0.868087053
vn -0.49641207 -0.00000005 0.868087053
vn -0.49641207 -0.00000005 0.868087053
vn -0.49641207 -0.00000005 0.868087053
vn -0.49641207 -0.00000005 0.868087053
vn -0.49641207 -0.00000005 0.868087053
vn -0.49641207 -0.00000005 0.868087053
vn 0.496412038 0.000000051 -0.86808699
vn 0.496412038 0.000000051 -0.86808699
vn 0.496412038 0.000000051 -0.86808699
vn 0.496412038 0.000000051 -0.86808699
vn 0.496412038 0.000000051 -0.86808699
vn 0.496412038 0.000000051 -0.86808699
vn 0.496412038 0.000000051 -0.86808699
vn 0.496412038 0.000000051 -0.86808699
vn 0.496412038 0.000000051 -0.86808699
vn 0.496412038 0.000000051 -0.86808699
vn 0.496412038 0.000000051 -0.86808699
vn 0.496412038 0.000000051 -0.86808699
vn 0.496412038 0.000000051 -0.86808699
vn 0.496412038 0.000000051 -0.86808699
vn 0.496412038 0.000000051 -0.86808699
vn 0.496412038 0.000000051 -0.86808699
vn 0.496412038 0.000000051 -0.86808699
vn 0.496412038 0.000000051 -0.86808699
vn 0.496412038 0.000000051 -0.86808699
s 0
f 1//1 13//13 14//14 2//2
f 2//2 14//14 15//15 3//3
f 3//3 15//15 16//16 4//4
f 4//4 16//16 17//17 5//5
f 5//5 17//17 18//18 6//6
f 6//6 18//18 19//19 7//7
f 7//7 19//19 20//20 8//8
f 8//8 20//20 21//21 9//9
f 9//9 21//21 22//22 10//10
f 10//10 22//22 23//23 11//11
f 11//11 23//23 24//24 12//12
f 12//12 24//24 13//13 1//1
f 26//26 25//25 1//1 2//2
f 27//27 26//26 2//2 3//3
f 28//28 27//27 3//3 4//4
f 29//29 28//28 4//4 5//5
f 30//30 29//29 5//5 6//6
f 31//31 30//30 6//6 7//7
f 32//32 31//31 7//7 8//8
f 33//33 32//32 8//8 9//9
f 34//34 33//33 9//9 10//10
f 35//35 34//34 10//10 11//11
f 36//36 35//35 11//11 12//12
f 25//25 36//36 12//12 1//1
f 39//39 40//40 37//37 38//38
f 41//41 42//42 37//37 40//40
f 43//43 38//38 37//37 42//42
f 26//26 39//39 38//38 25//25
f 27//27 28//28 39//39 26//26
f 40//40 39//39 28//28 29//29
f 30//30 41//41 40//40 29//29
f 31//31 32//32 41//41 30//30
f 42//42 41//41 32//32 33//33
f 34//34 43//43 42//42 33//33
f 35//35 36//36 43//43 34//34
f 38//38 43//43 36//36 25//25
f 13//13 44//44 45//45 14//14
f 14//14 45//45 46//46 15//15
f 15//15 46//46 47//47 16//16
f 16//16 47//47 48//48 17//17
f 17//17 48//48 49//49 18//18
f 18//18 49//49 50//50 19//19
f 19//19 50//50 51//51 20//20
f 20//20 51//51 52//52 21//21
f 21//21 52//52 53//53 22//22
f 22//22 53//53 54//54 23//23
f 23//23 54//54 55//55 24//24
f 24//24 55//55 44//44 13//13
f 56//56 59//59 58//58 57//57
f 56//56 61//61 60//60 59//59
f 56//56 57//57 62//62 61//61
f 57//57 58//58 45//45 44//44
f 58//58 47//47 46//46 45//45
f 47//47 58//58 59//59 48//48
f 59//59 60//60 49//49 48//48
f 60//60 51//51 50//50 49//49
f 51//51 60//60 61//61 52//52
f 61//61 62//62 53//53 52//52
f 62//62 55//55 54//54 53//53
f 55//55 62//62 57//57 44//44
