# Exported from Nomad Sculpt
o boom_vang
usemtl mat0_boom_vang
v -0.13339625 0.240496918 -0.54000241 1 1 1
v -0.13514011 0.241952136 -0.54220545 1 1 1
v -0.13627313 0.239395394 -0.54072511 1 1 1
v -0.00167886 0.048222918 -0.77127188 1 1 1
v -0.00342272 0.049678135 -0.77347493 1 1 1
v -0.00455573 0.047121394 -0.77199459 1 1 1
vn 0.841445624 -0.06210279 0.536761164
vn -0.11308601 0.734475612 -0.66914654
vn -0.73330665 -0.6650784 0.141181275
vn 0.844787776 -0.06698172 0.530892670
vn -0.10974359 0.729596495 -0.67501503
vn -0.72996408 -0.66995746 0.135312512
s 0
f 1//1 4//4 5//5 2//2
f 2//2 5//5 6//6 3//3
f 3//3 6//6 4//4 1//1
f 1//1 2//2 3//3
f 4//4 6//6 5//5
