# Exported from Nomad Sculpt
o center_board
usemtl mat0_center_board
v 0.009842876 -0.25198016 -0.31431517 1 1 1
v 0.013355406 -0.47179678 -0.28333768 1 1 1
v -0.00963641 -0.23362204 -0.1265651 1 1 1
v -0.00967476 -0.57048082 -0.11562657 1 1 1
v 0.009636411 -0.23362204 -0.1265651 1 1 1
v 0.009674756 -0.57048082 -0.11562657 1 1 1
v -0.00984288 -0.25198016 -0.31431517 1 1 1
v -0.01335541 -0.47179678 -0.28333768 1 1 1
vn 0.992823779 0.067227117 -0.09890178
vn 0.986830532 -0.0857235 -0.13717511
vn -0.98683637 0.085694521 0.137151360
vn -0.99282402 -0.06726134 0.098876029
vn 0.986837148 0.085691943 0.137147218
vn 0.992824435 -0.0672593 0.098873034
vn -0.9928233 0.067229151 -0.09890477
vn -0.9868297 -0.08572608 -0.13717924
s 0
f 1//1 2//2 8//8 7//7
f 3//3 4//4 6//6 5//5
f 5//5 6//6 2//2 1//1
f 7//7 8//8 4//4 3//3
f 4//4 8//8 2//2 6//6
f 7//7 3//3 5//5 1//1
