# Exported from Nomad Sculpt
o tiller
usemtl mat0_tiller
v 0.007368242 -0.04077507 0.433307230 1 1 1
v 0.007147599 -0.00245211 0.216165900 1 1 1
v -0.00418954 -0.0452834 0.409845322 1 1 1
v -0.00603815 -0.00621864 0.145898610 1 1 1
v 0.006893110 -0.04548283 0.409685730 1 1 1
v 0.006374041 -0.00741864 0.141402721 1 1 1
v -0.00457512 -0.04058535 0.433298349 1 1 1
v -0.00598951 -0.00134469 0.219925850 1 1 1
v 0.009712775 -0.01659035 0.341115742 1 1 1
v 0.000451682 0.001058151 0.192916154 1 1 1
v -0.00752552 -0.01609856 0.343537151 1 1 1
v 0.001452555 -0.04698109 0.463641196 1 1 1
v 0.001127971 -0.0161841 0.353314250 1 1 1
v -0.00681561 -0.01877732 0.277224212 1 1 1
v -0.00001288 0.003078201 0.095430649 1 1 1
v 0.008564932 -0.01949262 0.274097025 1 1 1
v 0.001428249 -0.05734427 0.447563827 1 1 1
v 0.000819971 -0.02017324 0.264876693 1 1 1
v 0.00902797 -0.0009975 0.132473558 1 1 1
v 0.009001953 -0.05224583 0.455833137 1 1 1
v 0.011871487 -0.01752059 0.306632161 1 1 1
v -0.00878902 0.000788051 0.139251455 1 1 1
v -0.00612273 -0.05209128 0.455480128 1 1 1
v -0.00986904 -0.01676935 0.310603350 1 1 1
v -0.0000164 0.010401554 0.096474260 1 1 1
v 0.001492215 -0.06342188 0.494534194 1 1 1
vn 0.775494754 0.600320279 0.195508375
vn 0.567156970 0.820560991 0.070800088
vn -0.70141488 -0.70097381 -0.12904638
vn -0.59696698 -0.7929768 -0.12173047
vn 0.665587723 -0.73367751 -0.13678561
vn 0.455869704 -0.8795675 -0.13617592
vn -0.75379032 0.622527897 0.210378631
vn -0.4588199 0.884463727 0.084901399
vn 0.672450125 0.729815304 0.123209357
vn 0.094914175 0.991144657 0.092862658
vn -0.61763793 0.773973345 0.139601558
vn 0.031495511 0.950206637 0.310024797
vn 0.062532797 0.982758343 0.173999011
vn -0.62599868 -0.77070916 -0.1188828
vn -0.12815316 -0.97805643 -0.16426326
vn 0.545473933 -0.82811511 -0.12916504
vn -0.04104833 -0.98224622 -0.1830503
vn -0.07971822 -0.98482418 -0.15416355
vn 0.962923109 0.269278854 -0.01637064
vn 0.985561132 -0.16880146 0.013247953
vn 0.997789919 -0.06557516 -0.01073508
vn -0.96084148 0.276999741 -0.00739765
vn -0.98538744 -0.16936941 0.018045224
vn -0.99769783 -0.06773391 -0.00333142
vn 0.085330382 0.996039927 -0.0249643
vn -0.01330651 -0.94317454 0.332031399
s 0
f 1//1 9//9 13//13 12//12
f 9//9 2//2 10//10 13//13
f 13//13 10//10 8//8 11//11
f 12//12 13//13 11//11 7//7
f 3//3 14//14 18//18 17//17
f 14//14 4//4 15//15 18//18
f 18//18 15//15 6//6 16//16
f 17//17 18//18 16//16 5//5
f 5//5 16//16 21//21 20//20
f 16//16 6//6 19//19 21//21
f 21//21 19//19 2//2 9//9
f 20//20 21//21 9//9 1//1
f 7//7 11//11 24//24 23//23
f 11//11 8//8 22//22 24//24
f 24//24 22//22 4//4 14//14
f 23//23 24//24 14//14 3//3
f 4//4 22//22 25//25 15//15
f 22//22 8//8 10//10 25//25
f 25//25 10//10 2//2 19//19
f 15//15 25//25 19//19 6//6
f 7//7 23//23 26//26 12//12
f 23//23 3//3 17//17 26//26
f 26//26 17//17 5//5 20//20
f 12//12 26//26 20//20 1//1
