# Exported from Nomad Sculpt
o mast
usemtl mat0_mast
v 0.015462874 -0.04060435 -0.78444314 1 1 1
v 0.013391241 -0.04060435 -0.7767117 1 1 1
v 0.007731436 -0.04060435 -0.77105188 1 1 1
v -0 -0.04060435 -0.76898026 1 1 1
v -0.00773144 -0.04060435 -0.77105188 1 1 1
v -0.01339124 -0.04060435 -0.7767117 1 1 1
v -0.01546287 -0.04060435 -0.78444314 1 1 1
v -0.01339124 -0.04060435 -0.79217458 1 1 1
v -0.00773144 -0.04060435 -0.7978344 1 1 1
v 0.000000000 -0.04060435 -0.79990602 1 1 1
v 0.007731435 -0.04060435 -0.7978344 1 1 1
v 0.013391244 -0.04060435 -0.79217458 1 1 1
v 0.015462874 1.318399429 -0.78444314 1 1 1
v 0.013391241 1.318399429 -0.7767117 1 1 1
v 0.007731436 1.318399429 -0.77105188 1 1 1
v -0 1.318399429 -0.76898026 1 1 1
v -0.00773144 1.318399429 -0.77105188 1 1 1
v -0.01339124 1.318399429 -0.7767117 1 1 1
v -0.01546287 1.318399429 -0.78444314 1 1 1
v -0.01339124 1.318399429 -0.79217458 1 1 1
v -0.00773144 1.318399429 -0.7978344 1 1 1
v 0.000000000 1.318399429 -0.79990602 1 1 1
v 0.007731435 1.318399429 -0.7978344 1 1 1
v 0.013391244 1.318399429 -0.79217458 1 1 1
v 0.010824012 -0.04060435 -0.78444314 1 1 1
v 0.009373869 -0.04060435 -0.77903116 1 1 1
v 0.005412005 -0.04060435 -0.7750693 1 1 1
v -0 -0.04060435 -0.77361912 1 1 1
v -0.00541201 -0.04060435 -0.7750693 1 1 1
v -0.00937387 -0.04060435 -0.77903116 1 1 1
v -0.01082401 -0.04060435 -0.78444314 1 1 1
v -0.00937387 -0.04060435 -0.78985512 1 1 1
v -0.00541201 -0.04060435 -0.79381698 1 1 1
v 0.000000000 -0.04060435 -0.79526716 1 1 1
v 0.005412005 -0.04060435 -0.79381698 1 1 1
v 0.009373870 -0.04060435 -0.78985512 1 1 1
v 0 -0.04060435 -0.78444314 1 1 1
v 0.005412006 -0.04060435 -0.78444314 1 1 1
v 0.002706003 -0.04060435 -0.77975619 1 1 1
v -0.002706 -0.04060435 -0.77975619 1 1 1
v -0.00541201 -0.04060435 -0.78444314 1 1 1
v -0.002706 -0.04060435 -0.78913009 1 1 1
v 0.002706005 -0.04060435 -0.78913009 1 1 1
v 0.010824012 1.318399429 -0.78444314 1 1 1
v 0.009373869 1.318399429 -0.77903116 1 1 1
v 0.005412005 1.318399429 -0.7750693 1 1 1
v -0 1.318399429 -0.77361912 1 1 1
v -0.00541201 1.318399429 -0.7750693 1 1 1
v -0.00937387 1.318399429 -0.77903116 1 1 1
v -0.01082401 1.318399429 -0.78444314 1 1 1
v -0.00937387 1.318399429 -0.78985512 1 1 1
v -0.00541201 1.318399429 -0.79381698 1 1 1
v 0.000000000 1.318399429 -0.79526716 1 1 1
v 0.005412005 1.318399429 -0.79381698 1 1 1
v 0.009373870 1.318399429 -0.78985512 1 1 1
v 0 1.318399429 -0.78444314 1 1 1
v 0.005412006 1.318399429 -0.78444314 1 1 1
v 0.002706003 1.318399429 -0.77975619 1 1 1
v -0.002706 1.318399429 -0.77975619 1 1 1
v -0.00541201 1.318399429 -0.78444314 1 1 1
v -0.002706 1.318399429 -0.78913009 1 1 1
v 0.002706005 1.318399429 -0.78913009 1 1 1
vn 0.999995946 -0.00286873 0
vn 0.866028070 -0.00286875 0.499987244
vn 0.499987244 -0.00286875 0.866028070
vn 0 -0.00286873 0.999995946
vn -0.49996436 -0.0028688 0.866041243
vn -0.86602038 -0.00286883 0.500000476
vn -0.99999589 -0.00286882 0
vn -0.86603361 -0.00286887 -0.49997756
vn -0.49997756 -0.00286887 -0.86603361
vn 0 -0.00286882 -0.99999589
vn 0.500000476 -0.00286883 -0.86602038
vn 0.866041243 -0.0028688 -0.49996436
vn 0.999995827 0.002899246 0
vn 0.866027951 0.002899272 0.499987185
vn 0.499987185 0.002899272 0.866027951
vn 0 0.002899246 0.999995827
vn -0.4999643 0.002899316 0.866041183
vn -0.86602038 0.002899349 0.500000417
vn -0.99999583 0.002899334 0
vn -0.86603355 0.002899393 -0.49997753
vn -0.49997753 0.002899393 -0.86603355
vn 0 0.002899334 -0.99999583
vn 0.500000417 0.002899349 -0.86602038
vn 0.866041183 0.002899316 -0.4999643
vn 0 -1 0
vn 0 -1 0
vn 0 -1 0
vn 0 -1 0
vn 0 -1 0
vn 0 -1 0
vn 0 -1 0
vn 0 -1 0
vn 0 -1 0
vn 0 -1 0
vn 0 -1 0
vn 0 -1 0
vn 0 -1 0
vn 0 -1 0
vn 0 -1 0
vn 0 -1 0
vn 0 -1 0
vn 0 -1 0
vn 0 -1 0
vn 0 1 0
vn 0 1 0
vn 0 1 0
vn 0 1 0
vn 0 1 0
vn 0 1 0
vn 0 1 0
vn 0 1 0
vn 0 1 0
vn 0 1 0
vn 0 1 0
vn 0 1 0
vn 0 1 0
vn 0 1 0
vn 0 1 0
vn 0 1 0
vn 0 1 0
vn 0 1 0
vn 0 1 0
s 0
f 1//1 13//13 14//14 2//2
f 2//2 14//14 15//15 3//3
f 3//3 15//15 16//16 4//4
f 4//4 16//16 17//17 5//5
f 5//5 17//17 18//18 6//6
f 6//6 18//18 19//19 7//7
f 7//7 19//19 20//20 8//8
f 8//8 20//20 21//21 9//9
f 9//9 21//21 22//22 10//10
f 10//10 22//22 23//23 11//11
f 11//11 23//23 24//24 12//12
f 12//12 24//24 13//13 1//1
f 26//26 25//25 1//1 2//2
f 27//27 26//26 2//2 3//3
f 28//28 27//27 3//3 4//4
f 29//29 28//28 4//4 5//5
f 30//30 29//29 5//5 6//6
f 31//31 30//30 6//6 7//7
f 32//32 31//31 7//7 8//8
f 33//33 32//32 8//8 9//9
f 34//34 33//33 9//9 10//10
f 35//35 34//34 10//10 11//11
f 36//36 35//35 11//11 12//12
f 25//25 36//36 12//12 1//1
f 39//39 40//40 37//37 38//38
f 41//41 42//42 37//37 40//40
f 43//43 38//38 37//37 42//42
f 26//26 39//39 38//38 25//25
f 27//27 28//28 39//39 26//26
f 40//40 39//39 28//28 29//29
f 30//30 41//41 40//40 29//29
f 31//31 32//32 41//41 30//30
f 42//42 41//41 32//32 33//33
f 34//34 43//43 42//42 33//33
f 35//35 36//36 43//43 34//34
f 38//38 43//43 36//36 25//25
f 13//13 44//44 45//45 14//14
f 14//14 45//45 46//46 15//15
f 15//15 46//46 47//47 16//16
f 16//16 47//47 48//48 17//17
f 17//17 48//48 49//49 18//18
f 18//18 49//49 50//50 19//19
f 19//19 50//50 51//51 20//20
f 20//20 51//51 52//52 21//21
f 21//21 52//52 53//53 22//22
f 22//22 53//53 54//54 23//23
f 23//23 54//54 55//55 24//24
f 24//24 55//55 44//44 13//13
f 56//56 59//59 58//58 57//57
f 56//56 61//61 60//60 59//59
f 56//56 57//57 62//62 61//61
f 57//57 58//58 45//45 44//44
f 58//58 47//47 46//46 45//45
f 47//47 58//58 59//59 48//48
f 59//59 60//60 49//49 48//48
f 60//60 51//51 50//50 49//49
f 51//51 60//60 61//61 52//52
f 61//61 62//62 53//53 52//52
f 62//62 55//55 54//54 53//53
f 55//55 62//62 57//57 44//44
